<svg width="18" height="18" viewBox="0 0 18 18" fill="none" xmlns="http://www.w3.org/2000/svg">
<path fill-rule="evenodd" clip-rule="evenodd" d="M14.4061 12.4475C14.8962 12.4466 15.3708 12.2758 15.7491 11.964C16.1274 11.6522 16.3859 11.2188 16.4806 10.7377L17.5433 5.42103C17.6049 5.11288 17.5974 4.79489 17.5215 4.48997C17.4455 4.18505 17.303 3.90077 17.1041 3.65756C16.9052 3.41434 16.655 3.21819 16.3713 3.08332C16.0876 2.94844 15.7776 2.87818 15.4635 2.87752H4.88284V1.81419C4.88284 1.53217 4.77085 1.26173 4.57155 1.06231C4.37225 0.862899 4.10195 0.750854 3.82009 0.750854H1.70417C1.42231 0.750854 1.15198 0.862899 0.952676 1.06231C0.753373 1.26173 0.641422 1.53217 0.641422 1.81419C0.641422 2.0962 0.753373 2.36665 0.952676 2.56606C1.15198 2.76547 1.42231 2.87752 1.70417 2.87752H2.76691V13.5108C2.34613 13.5089 1.93425 13.6321 1.58345 13.8646C1.23266 14.0971 0.958725 14.4286 0.796384 14.817C0.634043 15.2054 0.59059 15.6333 0.67152 16.0465C0.752449 16.4597 0.954119 16.8395 1.25099 17.1379C1.54786 17.4362 1.92657 17.6397 2.33913 17.7225C2.75169 17.8054 3.17957 17.7639 3.56851 17.6032C3.95745 17.4425 4.28996 17.1699 4.52394 16.82C4.75792 16.47 4.88283 16.0585 4.88284 15.6375H12.2891C12.2908 16.0561 12.4164 16.4647 12.65 16.8119C12.8836 17.1591 13.2149 17.4293 13.6018 17.5883C13.9888 17.7473 14.4142 17.7881 14.8243 17.7054C15.2344 17.6227 15.6108 17.4203 15.906 17.1237C16.2012 16.8271 16.402 16.4497 16.483 16.0391C16.564 15.6284 16.5216 15.203 16.3611 14.8164C16.2006 14.4299 15.9293 14.0996 15.5813 13.8672C15.2334 13.6348 14.8244 13.5108 14.4061 13.5108H4.88284V12.4475H14.4061ZM15.4688 5.00418L14.4061 10.3208H4.88284V5.00418H15.4635H15.4688Z" fill="#33A0FF"/>
</svg>
