<svg width="76" height="60" viewBox="0 0 76 60" fill="none" xmlns="http://www.w3.org/2000/svg">
<rect x="0.154297" y="0.695068" width="75" height="59" fill="white"/>
<path d="M35.3418 37.6951C35.6525 37.6951 35.9043 37.4432 35.9043 37.1326C35.9043 36.8219 35.6525 36.5701 35.3418 36.5701C35.0311 36.5701 34.7793 36.8219 34.7793 37.1326C34.7793 37.4432 35.0311 37.6951 35.3418 37.6951Z" fill="#22262A" stroke="#22262A" stroke-width="2" stroke-miterlimit="10" stroke-linecap="round" stroke-linejoin="round"/>
<path d="M43.2168 37.6951C43.5275 37.6951 43.7793 37.4432 43.7793 37.1326C43.7793 36.8219 43.5275 36.5701 43.2168 36.5701C42.9061 36.5701 42.6543 36.8219 42.6543 37.1326C42.6543 37.4432 42.9061 37.6951 43.2168 37.6951Z" fill="#22262A" stroke="#22262A" stroke-width="2" stroke-miterlimit="10" stroke-linecap="round" stroke-linejoin="round"/>
<path d="M29.1543 19.6951H31.4043L33.6543 33.1951H44.9043L47.1543 23.0701H32.5293" stroke="#22262A" stroke-width="2" stroke-linecap="round" stroke-linejoin="round"/>
<circle cx="50.1543" cy="16.6951" r="11" fill="#FB7181" stroke="white" stroke-width="2"/>
<path d="M47.6879 20.5951H52.7079V19.2051H50.0079C51.1679 18.3151 52.5979 17.0351 52.5979 15.4351C52.5979 14.2051 51.8579 13.2351 50.1979 13.2351C48.8679 13.2351 47.7179 13.9951 47.6679 15.7651H49.3179C49.3179 15.0751 49.6179 14.6751 50.1279 14.6751C50.6479 14.6751 50.8879 15.0151 50.8879 15.5451C50.8879 16.7751 49.2379 18.0451 47.6879 19.3251V20.5951Z" fill="white"/>
</svg>
