<svg width="8" height="16" viewBox="0 0 8 16" fill="none" xmlns="http://www.w3.org/2000/svg">
<path d="M0.24749 8.34053H1.90549V15.1685C1.90549 15.2332 1.9312 15.2953 1.97696 15.3411C2.02272 15.3868 2.08478 15.4125 2.14949 15.4125H4.96149C5.0262 15.4125 5.08826 15.3868 5.13402 15.3411C5.17978 15.2953 5.20549 15.2332 5.20549 15.1685V8.37253H7.11249C7.17229 8.37244 7.22997 8.35039 7.27458 8.31057C7.31919 8.27075 7.34763 8.21593 7.35449 8.15653L7.64449 5.64253C7.64843 5.60839 7.64512 5.57379 7.63477 5.54102C7.62441 5.50824 7.60724 5.47802 7.5844 5.45234C7.56155 5.42666 7.53353 5.4061 7.50218 5.392C7.47083 5.3779 7.43685 5.37059 7.40248 5.37053H5.20248V3.79553C5.20248 3.32053 5.45849 3.07953 5.96249 3.07953H7.39848C7.4632 3.07953 7.52526 3.05382 7.57101 3.00807C7.61677 2.96231 7.64249 2.90024 7.64249 2.83553V0.528532C7.64302 0.464161 7.6181 0.402185 7.57315 0.356108C7.5282 0.310031 7.46685 0.283585 7.40248 0.282532L5.42149 0.282532H5.33049C4.41827 0.285751 3.53779 0.617709 2.85049 1.21753C2.52618 1.50095 2.27734 1.8605 2.12636 2.26388C1.97538 2.66725 1.92697 3.10182 1.98549 3.52853V5.37153H0.244484C0.179771 5.37153 0.117712 5.39724 0.0719528 5.443C0.0261939 5.48876 0.000488282 5.55082 0.000488282 5.61553V8.09653C0.000485841 8.12883 0.00689119 8.1608 0.0193405 8.1906C0.0317898 8.22041 0.0500371 8.24744 0.0730133 8.27014C0.0959895 8.29283 0.12324 8.31074 0.153191 8.32283C0.183141 8.33491 0.215196 8.34093 0.24749 8.34053Z" fill="#385C8E"/>
</svg>
