<svg width="9" height="17" viewBox="0 0 9 17" fill="none" xmlns="http://www.w3.org/2000/svg">
<path d="M0.833513 8.89236H2.59554V16.1528C2.59554 16.2216 2.62286 16.2876 2.67149 16.3362C2.72012 16.3849 2.78607 16.4122 2.85485 16.4122H5.84327C5.91204 16.4122 5.978 16.3849 6.02663 16.3362C6.07526 16.2876 6.10258 16.2216 6.10258 16.1528V8.92638H8.12923C8.19278 8.92628 8.25408 8.90283 8.30149 8.86049C8.3489 8.81815 8.37912 8.75987 8.38642 8.6967L8.6946 6.02349C8.6988 5.98718 8.69528 5.9504 8.68428 5.91554C8.67327 5.88069 8.65503 5.84856 8.63075 5.82126C8.60646 5.79395 8.57669 5.77208 8.54337 5.75709C8.51006 5.7421 8.47395 5.73432 8.43742 5.73426H6.09939V4.05952C6.09939 3.55444 6.37146 3.29817 6.90708 3.29817H8.43317C8.50194 3.29817 8.56789 3.27084 8.61652 3.22218C8.66515 3.17352 8.69248 3.10753 8.69248 3.03872V0.585615C8.69305 0.517167 8.66657 0.451267 8.61879 0.402272C8.57102 0.353276 8.50582 0.325155 8.43742 0.324036L6.33214 0.324036H6.23543C5.26597 0.327459 4.33025 0.68044 3.59983 1.31825C3.25517 1.61962 2.99072 2.00194 2.83026 2.43086C2.66981 2.85978 2.61837 3.32187 2.68056 3.77561V5.73533H0.830319C0.761546 5.73533 0.695593 5.76266 0.646963 5.81132C0.598333 5.85997 0.571014 5.92597 0.571014 5.99478V8.6329C0.571012 8.66724 0.577819 8.70125 0.591049 8.73293C0.60428 8.76462 0.623672 8.79337 0.64809 8.8175C0.672507 8.84164 0.701468 8.86068 0.733297 8.87353C0.765127 8.88638 0.799193 8.89278 0.833513 8.89236Z" fill="white"/>
</svg>
