<svg width="39" height="26" viewBox="0 0 39 26" fill="none" xmlns="http://www.w3.org/2000/svg">
<path d="M1.71626 0.217407H36.6892C37.1399 0.226597 37.5686 0.414201 37.8808 0.73938C38.1931 1.06456 38.3633 1.50057 38.3542 1.95129V23.6256C38.3633 24.0763 38.1931 24.5119 37.8808 24.837C37.5686 25.1622 37.1399 25.3503 36.6892 25.3595H1.71626C1.26554 25.3503 0.836849 25.1622 0.524609 24.837C0.212369 24.5119 0.0421104 24.0763 0.0512204 23.6256V1.95129C0.0421104 1.50057 0.212369 1.06456 0.524609 0.73938C0.836849 0.414201 1.26554 0.226597 1.71626 0.217407Z" fill="#5870BE"/>
<path d="M16.8062 12.7842C16.8066 11.0084 17.3336 9.27268 18.3204 7.79637C19.3072 6.32007 20.7096 5.16954 22.3503 4.49022C23.991 3.8109 25.7962 3.63337 27.5378 3.97997C29.2794 4.32657 30.8792 5.18177 32.1347 6.43749C33.3903 7.6932 34.2454 9.29302 34.5918 11.0347C34.9382 12.7763 34.7603 14.5816 34.0808 16.2222C33.4013 17.8628 32.2507 19.2648 30.7743 20.2515C29.2978 21.2381 27.562 21.7649 25.7862 21.7651C24.6069 21.7651 23.439 21.5329 22.3495 21.0815C21.2599 20.6302 20.2699 19.9687 19.436 19.1348C18.6021 18.3008 17.9407 17.3108 17.4895 16.2212C17.0382 15.1316 16.8061 13.9635 16.8062 12.7842Z" fill="#FFAF38"/>
<path d="M12.0272 21.7633C10.4961 21.7631 8.99048 21.3715 7.65338 20.6256C6.31628 19.8797 5.1921 18.8042 4.38763 17.5015C3.58317 16.1988 3.12514 14.7123 3.05707 13.1827C2.98899 11.6531 3.31316 10.1313 3.99872 8.76228C4.68428 7.39326 5.70851 6.22265 6.97406 5.36091C8.23962 4.49918 9.70442 3.97513 11.2294 3.83894C12.7544 3.70276 14.289 3.95874 15.6872 4.58259C17.0854 5.20645 18.3009 6.17751 19.2182 7.40339H18.0182V8.00349H19.6312C19.7522 8.19449 19.8662 8.39236 19.9722 8.59236H17.4182V9.19246H20.2612C20.3492 9.39246 20.4282 9.59256 20.4982 9.79255H16.8182V10.3922H20.6862C21.1724 12.1661 21.1054 14.0464 20.4942 15.7813H16.8182V16.3814H20.2571C20.1671 16.5884 20.0702 16.7812 19.9722 16.9722H17.4182V17.5723H19.6242C19.4912 17.7823 19.3522 17.9834 19.2112 18.1724H18.0182V18.7725H18.7182C17.8754 19.7129 16.844 20.4652 15.6912 20.9805C14.5384 21.4959 13.2899 21.7624 12.0272 21.7633Z" fill="#E63737"/>
<path d="M2.17597 14.4362L2.72267 10.1762L3.57118 10.2851L4.19242 13.4308C4.24936 13.7236 4.29019 13.9425 4.31491 14.0875C4.38323 13.9387 4.48799 13.7208 4.6292 13.4337L6.02953 10.6006L6.78796 10.698L6.24126 14.9579L5.69787 14.8882L6.15544 11.3227L4.45997 14.7293L3.95145 14.6641L3.18477 10.8794L2.71936 14.506L2.17597 14.4362ZM9.14657 14.9438C8.93171 15.0837 8.72985 15.1759 8.54099 15.2206C8.35406 15.2655 8.15793 15.2748 7.95258 15.2484C7.61356 15.2049 7.36357 15.0892 7.2026 14.9011C7.04188 14.7112 6.97805 14.4873 7.01112 14.2297C7.03051 14.0786 7.08206 13.9454 7.16578 13.8301C7.25168 13.7131 7.35469 13.624 7.47481 13.5626C7.59686 13.5015 7.73012 13.4605 7.87457 13.4396C7.98073 13.4257 8.13906 13.4194 8.34958 13.4208C8.77836 13.4247 9.09699 13.4045 9.30548 13.3604C9.31661 13.2889 9.32342 13.2435 9.32591 13.2242C9.35326 13.0111 9.32313 12.8546 9.23551 12.7547C9.11701 12.6194 8.92603 12.5349 8.66256 12.501C8.41653 12.4695 8.22884 12.4897 8.09948 12.5617C7.97231 12.632 7.86658 12.773 7.78231 12.9847L7.27983 12.8493C7.35442 12.6364 7.45356 12.4699 7.57726 12.3499C7.70121 12.228 7.86853 12.1441 8.0792 12.0983C8.29012 12.0506 8.52828 12.0437 8.79368 12.0778C9.05714 12.1116 9.26723 12.17 9.42394 12.2532C9.58065 12.3363 9.69166 12.4303 9.75697 12.5352C9.82252 12.6381 9.8616 12.7632 9.8742 12.9106C9.8802 13.0019 9.86828 13.1638 9.83845 13.3963L9.74894 14.0937C9.68654 14.5799 9.65767 14.8893 9.66232 15.0219C9.66916 15.1527 9.69793 15.2814 9.74863 15.408L9.20233 15.3379C9.16201 15.2225 9.14342 15.0911 9.14657 14.9438ZM9.2529 13.7701C9.0531 13.8232 8.75988 13.8525 8.37322 13.8581C8.1542 13.8615 7.99766 13.8768 7.90357 13.9041C7.80949 13.9314 7.73338 13.9798 7.67525 14.0491C7.61738 14.1165 7.58259 14.1957 7.57091 14.2868C7.55301 14.4262 7.5904 14.5492 7.68307 14.6556C7.77769 14.7623 7.9267 14.8286 8.13011 14.8548C8.33158 14.8806 8.51637 14.86 8.68448 14.793C8.85283 14.724 8.98363 14.6177 9.07689 14.4741C9.14823 14.3632 9.1987 14.1924 9.22828 13.9619L9.2529 13.7701ZM10.3056 14.5432L10.8333 14.5282C10.8358 14.7392 10.8958 14.9084 11.0133 15.0357C11.1328 15.1633 11.3117 15.2424 11.55 15.273C11.7902 15.3038 11.9747 15.2782 12.1033 15.1963C12.2322 15.1124 12.3052 15.0046 12.3221 14.8729C12.3372 14.7547 12.2978 14.6551 12.2039 14.5741C12.1381 14.5184 11.9675 14.4365 11.6919 14.3283C11.3208 14.1822 11.0651 14.0647 10.9249 13.9758C10.7869 13.8852 10.687 13.773 10.6255 13.6391C10.5661 13.5034 10.5461 13.3601 10.5655 13.209C10.5831 13.0714 10.6304 12.9485 10.7073 12.8402C10.7864 12.7303 10.8852 12.6435 11.0036 12.5799C11.0927 12.5303 11.2095 12.4941 11.3543 12.4714C11.5011 12.4469 11.655 12.445 11.8158 12.4656C12.0579 12.4967 12.2656 12.5588 12.4387 12.6519C12.6138 12.7452 12.7372 12.8576 12.809 12.9889C12.881 13.1182 12.9207 13.2848 12.928 13.4885L12.4076 13.4926C12.4048 13.3308 12.3529 13.1981 12.2519 13.0946C12.153 12.9913 12.0018 12.9266 11.7984 12.9005C11.5581 12.8697 11.3816 12.8874 11.2687 12.9536C11.1559 13.0199 11.0926 13.1063 11.0789 13.2128C11.0702 13.2806 11.0837 13.3444 11.1194 13.4041C11.1548 13.4658 11.2156 13.5208 11.302 13.5693C11.3518 13.5954 11.5001 13.6597 11.7468 13.7623C12.1042 13.9086 12.3514 14.023 12.4885 14.1056C12.6277 14.1865 12.7313 14.2923 12.7992 14.4231C12.8671 14.5539 12.8896 14.7084 12.8667 14.8866C12.8444 15.061 12.7719 15.2191 12.6493 15.3609C12.5289 15.501 12.3674 15.6014 12.1647 15.662C11.9622 15.7207 11.7399 15.7345 11.4977 15.7034C11.0967 15.6519 10.8013 15.5294 10.6115 15.3357C10.4237 15.1422 10.3217 14.8781 10.3056 14.5432ZM14.5743 15.5518L14.5905 16.0235C14.4393 16.0356 14.3056 16.0342 14.1894 16.0193C13.9995 15.9949 13.8561 15.946 13.7592 15.8725C13.6623 15.7991 13.5988 15.7111 13.5686 15.6088C13.5387 15.5045 13.5438 15.2955 13.5841 14.9817L13.812 13.2062L13.4284 13.157L13.4806 12.7501L13.8642 12.7994L13.9622 12.0351L14.5227 11.788L14.3843 12.8661L14.9103 12.9336L14.8581 13.3404L14.3321 13.2729L14.1005 15.0775C14.0814 15.2266 14.0778 15.3237 14.0898 15.3685C14.1037 15.4136 14.1293 15.4514 14.1668 15.4818C14.2062 15.5124 14.2646 15.5327 14.3421 15.5427C14.4002 15.5501 14.4776 15.5532 14.5743 15.5518ZM17.2687 15.363L17.8006 15.4991C17.6748 15.804 17.4855 16.0288 17.2326 16.1735C16.9797 16.3183 16.674 16.3677 16.3156 16.3217C15.8643 16.2638 15.5236 16.0793 15.2938 15.7682C15.0661 15.4554 14.9845 15.0482 15.0489 14.5464C15.1155 14.0272 15.3009 13.6414 15.605 13.389C15.9092 13.1366 16.2743 13.0378 16.7005 13.0925C17.1131 13.1454 17.4322 13.3291 17.6577 13.6436C17.8832 13.9581 17.9632 14.37 17.8978 14.8795C17.8938 14.9105 17.8869 14.9569 17.877 15.0186L15.5756 14.7233C15.5514 15.0648 15.614 15.3367 15.7633 15.539C15.9126 15.7413 16.1161 15.8589 16.3737 15.892C16.5655 15.9166 16.7357 15.8873 16.8842 15.8039C17.0327 15.7206 17.1609 15.5736 17.2687 15.363ZM15.6598 14.297L17.383 14.5181C17.3931 14.2555 17.3522 14.0524 17.2604 13.9087C17.1196 13.6858 16.9165 13.5573 16.6511 13.5233C16.4109 13.4925 16.1982 13.5469 16.0129 13.6865C15.8295 13.8264 15.7118 14.0299 15.6598 14.297ZM18.3354 16.51L18.7315 13.424L19.2022 13.4844L19.1422 13.9523C19.2904 13.7488 19.4193 13.6186 19.529 13.5618C19.6406 13.5052 19.7575 13.4848 19.8795 13.5004C20.0558 13.5231 20.2278 13.6022 20.3955 13.738L20.153 14.2001C20.0349 14.1082 19.9119 14.054 19.784 14.0376C19.6697 14.0229 19.5626 14.0446 19.4626 14.1027C19.3628 14.1588 19.2857 14.2454 19.2313 14.3625C19.1493 14.541 19.0942 14.7406 19.0658 14.9615L18.8585 16.5771L18.3354 16.51ZM23.6211 15.6701L24.1665 15.8849C23.989 16.3327 23.7305 16.6589 23.3911 16.8635C23.054 17.0663 22.6636 17.1393 22.22 17.0824C21.7608 17.0235 21.3989 16.8825 21.1341 16.6595C20.8715 16.4348 20.6874 16.1355 20.5818 15.7616C20.4781 15.3879 20.4524 14.9977 20.5046 14.5908C20.5615 14.1472 20.6954 13.7715 20.9062 13.4638C21.1192 13.1545 21.3926 12.9345 21.7263 12.8041C22.0623 12.6719 22.4182 12.63 22.794 12.6782C23.2202 12.7329 23.5647 12.8874 23.8274 13.1417C24.0902 13.3959 24.2534 13.727 24.3173 14.1349L23.7455 14.1945C23.6865 13.8718 23.5721 13.6278 23.4023 13.4622C23.2325 13.2967 23.0053 13.1956 22.7205 13.1591C22.3931 13.1171 22.1089 13.1604 21.8679 13.2889C21.6289 13.4178 21.4478 13.6092 21.3246 13.8631C21.2017 14.1152 21.1222 14.3816 21.0861 14.6625C21.0397 15.0248 21.0513 15.3482 21.1211 15.6329C21.1931 15.9158 21.3319 16.1384 21.5375 16.3007C21.7432 16.4629 21.9758 16.5607 22.2354 16.594C22.5511 16.6346 22.8302 16.5778 23.0724 16.4238C23.3147 16.2698 23.4976 16.0186 23.6211 15.6701ZM26.6863 17.1948C26.4715 17.3346 26.2696 17.4268 26.0807 17.4715C25.8938 17.5164 25.6977 17.5257 25.4923 17.4994C25.1533 17.4559 24.9033 17.3401 24.7423 17.1521C24.5816 16.9621 24.5178 16.7383 24.5509 16.4806C24.5703 16.3295 24.6218 16.1963 24.7055 16.0811C24.7914 15.9641 24.8944 15.8749 25.0146 15.8135C25.1366 15.7524 25.2699 15.7114 25.4143 15.6906C25.5205 15.6766 25.6788 15.6704 25.8893 15.6718C26.3181 15.6756 26.6367 15.6554 26.8452 15.6113C26.8564 15.5399 26.8632 15.4945 26.8657 15.4751C26.893 15.262 26.8629 15.1055 26.7753 15.0057C26.6568 14.8704 26.4658 14.7858 26.2023 14.752C25.9563 14.7204 25.7686 14.7406 25.6392 14.8126C25.5121 14.883 25.4063 15.024 25.3221 15.2357L24.8196 15.1003C24.8942 14.8873 24.9933 14.7209 25.117 14.6009C25.241 14.4789 25.4083 14.3951 25.6189 14.3493C25.8299 14.3015 26.068 14.2946 26.3334 14.3287C26.5969 14.3625 26.807 14.421 26.9637 14.5041C27.1204 14.5872 27.2314 14.6812 27.2967 14.7861C27.3623 14.889 27.4013 15.0142 27.4139 15.1615C27.4199 15.2528 27.408 15.4148 27.3782 15.6472L27.2887 16.3446C27.2263 16.8309 27.1974 17.1403 27.2021 17.2728C27.2089 17.4036 27.2377 17.5324 27.2884 17.659L26.7421 17.5889C26.7018 17.4734 26.6832 17.3421 26.6863 17.1948ZM26.7926 16.021C26.5929 16.0742 26.2996 16.1035 25.913 16.109C25.694 16.1124 25.5374 16.1278 25.4433 16.1551C25.3492 16.1824 25.2731 16.2307 25.215 16.3C25.1571 16.3674 25.1223 16.4467 25.1107 16.5377C25.0928 16.6772 25.1301 16.8001 25.2228 16.9065C25.3174 17.0132 25.4664 17.0796 25.6699 17.1057C25.8713 17.1315 26.0561 17.111 26.2242 17.0439C26.3926 16.9749 26.5234 16.8687 26.6166 16.7251C26.688 16.6141 26.7384 16.4434 26.768 16.2128L26.7926 16.021ZM27.9306 17.7414L28.3266 14.6554L28.7974 14.7158L28.7373 15.1836C28.8855 14.9801 29.0145 14.85 29.1242 14.7932C29.2358 14.7366 29.3526 14.7162 29.4747 14.7318C29.6509 14.7545 29.8229 14.8336 29.9906 14.9694L29.7482 15.4315C29.63 15.3396 29.507 15.2854 29.3791 15.269C29.2648 15.2543 29.1577 15.276 29.0577 15.334C28.9579 15.3902 28.8809 15.4768 28.8265 15.5938C28.7445 15.7723 28.6893 15.972 28.661 16.1929L28.4536 17.8085L27.9306 17.7414ZM31.9203 18.2534L31.9703 17.864C31.7353 18.145 31.428 18.2611 31.0483 18.2124C30.8023 18.1808 30.5843 18.0839 30.3945 17.9217C30.2065 17.7598 30.0709 17.5504 29.9877 17.2936C29.9067 17.035 29.8864 16.7479 29.9269 16.4321C29.9665 16.1241 30.0536 15.8517 30.1884 15.615C30.3233 15.3763 30.5021 15.2034 30.7246 15.096C30.9471 14.9887 31.1852 14.9514 31.439 14.9839C31.625 15.0078 31.7855 15.0688 31.9206 15.1668C32.056 15.263 32.1611 15.3798 32.236 15.5174L32.4321 13.989L32.9523 14.0557L32.4056 18.3157L31.9203 18.2534ZM30.4645 16.5011C30.4138 16.8963 30.4592 17.2024 30.6007 17.4195C30.7422 17.6365 30.9263 17.7596 31.1529 17.7887C31.3815 17.818 31.5872 17.7499 31.7699 17.5843C31.9548 17.417 32.0719 17.1416 32.1211 16.758C32.1753 16.3357 32.1337 16.0153 31.9963 15.7968C31.859 15.5783 31.6711 15.4538 31.4329 15.4232C31.2004 15.3934 30.9935 15.4633 30.8122 15.633C30.6329 15.803 30.517 16.0924 30.4645 16.5011Z" fill="white"/>
</svg>
