<svg width="50" height="50" viewBox="0 0 50 50" fill="none" xmlns="http://www.w3.org/2000/svg">
<path fill-rule="evenodd" clip-rule="evenodd" d="M28.4051 19.9408C29.0189 19.9418 29.6193 20.1201 30.1344 20.4543C30.6494 20.7884 31.057 21.2642 31.3084 21.8244C31.5598 22.3847 31.6441 23.0057 31.5514 23.6128C31.4586 24.2199 31.1927 24.7873 30.7856 25.2468C30.2011 25.9061 25.2169 30.5741 25.2169 30.5741C25.2169 30.5741 20.222 25.9061 19.6375 25.2362C19.1219 24.6565 18.8381 23.9069 18.8405 23.1308C18.8405 22.2848 19.1763 21.4734 19.7743 20.8751C20.3722 20.2769 21.1831 19.9408 22.0287 19.9408C22.8742 19.9408 23.6852 20.2769 24.2831 20.8751C24.881 21.4734 25.2169 22.2848 25.2169 23.1308C25.2169 22.2848 25.5528 21.4734 26.1507 20.8751C26.7486 20.2769 27.5595 19.9408 28.4051 19.9408ZM28.4051 17.8142C27.255 17.8121 26.1357 18.1854 25.2169 18.8775C24.1644 18.0997 22.8621 17.7378 21.5595 17.8611C20.2569 17.9845 19.0455 18.5844 18.1575 19.5458C17.2695 20.5073 16.7672 21.7628 16.747 23.0718C16.7267 24.3808 17.1899 25.6513 18.0477 26.6398C18.645 27.3246 22.576 31.008 23.7663 32.1202C24.16 32.4886 24.6789 32.6935 25.2179 32.6935C25.757 32.6935 26.2759 32.4886 26.6696 32.1202C27.8556 31.009 31.7708 27.3352 32.3755 26.6515C33.0523 25.8852 33.4939 24.9398 33.6473 23.9287C33.8007 22.9176 33.6594 21.8837 33.2403 20.9509C32.8212 20.0182 32.1422 19.2261 31.2846 18.6697C30.427 18.1134 29.4272 17.8163 28.4051 17.8142Z" fill="#33A0FF"/>
<path opacity="0.1" d="M45.427 0.800903H5.04289C2.69515 0.800903 0.791931 2.70518 0.791931 5.05423V45.4608C0.791931 47.8099 2.69515 49.7141 5.04289 49.7141H45.427C47.7748 49.7141 49.678 47.8099 49.678 45.4608V5.05423C49.678 2.70518 47.7748 0.800903 45.427 0.800903Z" fill="#33A0FF"/>
</svg>
