<svg width="39" height="26" viewBox="0 0 39 26" fill="none" xmlns="http://www.w3.org/2000/svg">
<path d="M1.8993 0.37854H36.6343C37.0831 0.390595 37.5089 0.579554 37.8187 0.904419C38.1286 1.22928 38.2974 1.66356 38.2882 2.11243V23.7853C38.2974 24.2341 38.1286 24.6684 37.8187 24.9933C37.5089 25.3182 37.0831 25.5071 36.6343 25.5192H1.8993C1.45051 25.5071 1.02461 25.3182 0.714729 24.9933C0.404852 24.6684 0.236105 24.2341 0.245246 23.7853V2.1134C0.235838 1.66437 0.404579 1.22999 0.714485 0.904907C1.02439 0.579825 1.45033 0.390594 1.8993 0.37854Z" fill="#F1F1F1"/>
<path d="M0.657234 24.9283C0.391617 24.6076 0.246952 24.2037 0.248298 23.7872V2.1134C0.23889 1.66437 0.407509 1.22999 0.717415 0.904907C1.02732 0.579825 1.45326 0.390594 1.90223 0.37854H36.6362C37.0579 0.379486 37.4623 0.546 37.7622 0.842407L0.662239 24.9283H0.657234Z" fill="white" fill-opacity="0.73"/>
<path d="M14.8933 18.3435L16.1932 15.9934L15.4692 10.3493H17.2402L17.5262 13.6896L19.2593 10.3493H21.0873L16.8783 18.3435H14.8933ZM9.34021 14.1276C9.61321 12.7536 10.9402 12.3176 12.9022 12.3176C13.0192 11.7066 12.6303 11.5534 11.9683 11.5764C11.3846 11.6046 10.8108 11.7378 10.2743 11.9694L10.4292 10.5964C11.0734 10.3962 11.7405 10.2788 12.4143 10.2473C13.6403 10.2253 15.0033 10.6167 14.6923 12.2097L13.9332 15.9597H12.1622L12.2782 15.3913C12.0726 15.6034 11.8269 15.7728 11.5553 15.8889C11.2837 16.0049 10.9917 16.0657 10.6963 16.0676C9.85729 16.0636 9.11031 15.5172 9.34131 14.1232L9.34021 14.1276ZM11.1512 14.0402C11.0955 14.1192 11.0638 14.2127 11.0601 14.3093C11.0563 14.4058 11.0806 14.5016 11.13 14.5847C11.1794 14.6677 11.2517 14.7348 11.3384 14.7775C11.425 14.8203 11.5223 14.8367 11.6183 14.8254C11.8374 14.8351 12.0526 14.7654 12.2244 14.6291C12.3962 14.4928 12.5129 14.2993 12.5532 14.0837C12.5764 13.9152 12.6098 13.7482 12.6532 13.5837H12.2052C12.0057 13.5652 11.8047 13.5968 11.6206 13.676C11.4365 13.7551 11.2751 13.8788 11.1512 14.0363V14.0402ZM3.24023 15.9597L4.70422 8.7873H8.01123C8.30603 8.78469 8.59718 8.85292 8.86023 8.98603C9.12328 9.11915 9.35059 9.31335 9.52307 9.55244C9.69556 9.79153 9.8082 10.0685 9.85156 10.3601C9.89492 10.6517 9.86767 10.9493 9.77222 11.2282C9.67703 11.8841 9.34828 12.4835 8.84631 12.9162C8.34435 13.3489 7.703 13.5862 7.04028 13.5837H5.65723L5.18225 15.9597H3.24023ZM5.93323 12.2097H6.84326C7.10946 12.1884 7.36151 12.0809 7.56152 11.904C7.76154 11.7271 7.89871 11.4898 7.95227 11.2282C7.99424 11.1206 8.00965 11.0047 7.99719 10.8898C7.98474 10.775 7.94481 10.6647 7.88074 10.5686C7.81667 10.4724 7.73037 10.3933 7.62915 10.3376C7.52793 10.2819 7.4147 10.251 7.29919 10.2482H6.34924L5.93323 12.2097Z" fill="#3284AE"/>
<path d="M26.5573 14.1232C26.8333 12.7492 28.1742 12.3146 30.1632 12.3146C30.3012 11.7026 29.9073 11.5514 29.2373 11.5734C28.6412 11.604 28.0547 11.7367 27.5033 11.9655L27.6613 10.5924C28.321 10.3948 29.0024 10.2778 29.6903 10.2443C30.9313 10.2223 32.2902 10.6132 31.9752 12.2052L31.2073 15.9542H29.4342L29.5522 15.3883C29.1227 15.8175 28.5414 16.0606 27.9342 16.0646C27.0762 16.0636 26.3203 15.5182 26.5573 14.1232ZM28.3903 14.0363C28.3364 14.1178 28.307 14.2134 28.3059 14.3112C28.3048 14.4089 28.3319 14.5047 28.3839 14.5875C28.4359 14.6703 28.5106 14.7365 28.5991 14.778C28.6877 14.8194 28.7864 14.8345 28.8833 14.8214C29.1011 14.8311 29.3149 14.7612 29.4852 14.6251C29.6555 14.489 29.7707 14.2958 29.8092 14.0812C29.8482 13.9062 29.8683 13.7532 29.9093 13.5812H29.4762C29.2713 13.5604 29.0644 13.5913 28.8743 13.6705C28.6841 13.7498 28.5167 13.8751 28.3872 14.0353L28.3903 14.0363ZM32.0262 15.9542L33.4923 8.76038H35.3123L33.8273 15.9542H32.0262ZM20.4573 15.9542L21.9193 8.78333H25.2192C25.5132 8.78253 25.8031 8.85182 26.0649 8.98547C26.3268 9.11913 26.553 9.31333 26.7247 9.55188C26.8965 9.79043 27.0089 10.0664 27.0526 10.3571C27.0964 10.6477 27.0702 10.9447 26.9762 11.2233C26.8809 11.8814 26.5503 12.4826 26.0455 12.9156C25.5408 13.3487 24.8962 13.5841 24.2312 13.5782H22.8683L22.3743 15.9532L20.4573 15.9542ZM23.1443 12.2052H24.0322C24.3006 12.1845 24.5552 12.0782 24.7582 11.9015C24.9612 11.7248 25.1018 11.4872 25.1593 11.2242C25.1991 11.1151 25.2123 10.9982 25.1978 10.8829C25.1832 10.7677 25.1414 10.6575 25.0758 10.5616C25.0102 10.4658 24.9226 10.3874 24.8204 10.3322C24.7182 10.2769 24.6044 10.2466 24.4883 10.2443H23.5403L23.1443 12.2052Z" fill="#3CA9C7"/>
</svg>
