<svg width="21" height="21" viewBox="0 0 21 21" fill="none" xmlns="http://www.w3.org/2000/svg">
<path fill-rule="evenodd" clip-rule="evenodd" d="M20.8103 17.3737C20.3268 16.0854 19.5856 14.9095 18.632 13.9179C17.6784 12.9264 16.5325 12.1402 15.2646 11.6075C15.9541 11.0408 16.5109 10.3295 16.8957 9.52391C17.2805 8.71828 17.484 7.83793 17.4916 6.94502C17.4667 5.38017 16.8632 3.8801 15.7977 2.73456C14.7322 1.58902 13.2802 0.879293 11.7224 0.742527C11.2122 0.679249 10.6963 0.679249 10.1861 0.742527C8.62918 0.880462 7.17846 1.5907 6.11397 2.73612C5.04949 3.88155 4.44667 5.38096 4.42188 6.94502C4.4293 7.83797 4.6326 8.7184 5.01742 9.52406C5.40224 10.3297 5.9592 11.041 6.64891 11.6075C5.38071 12.14 4.23456 12.9261 3.28073 13.9176C2.32691 14.9092 1.58551 16.0852 1.102 17.3737C0.965616 17.7505 0.925128 18.1553 0.984223 18.5516C1.04332 18.9479 1.20013 19.3233 1.44048 19.6438C1.6899 19.9729 2.01259 20.2393 2.38293 20.4218C2.75326 20.6043 3.16103 20.6979 3.57382 20.695H18.3484C18.7608 20.6978 19.1682 20.6042 19.5381 20.4217C19.908 20.2392 20.2303 19.9728 20.4793 19.6438C20.719 19.3229 20.8748 18.9472 20.9326 18.5508C20.9904 18.1544 20.9484 17.7498 20.8103 17.3737ZM7.0361 6.94502C7.05336 5.99723 7.4235 5.09 8.07406 4.40101C8.72463 3.71201 9.60875 3.29086 10.5533 3.22002C10.8225 3.18668 11.0948 3.18668 11.3639 3.22002C12.0743 3.32902 12.7386 3.6396 13.278 4.1149C13.8174 4.59021 14.2093 5.21032 14.4073 5.90174C14.6053 6.59317 14.601 7.32689 14.395 8.01596C14.189 8.70503 13.7899 9.32054 13.245 9.78953C12.7001 10.2585 12.0323 10.5613 11.3207 10.662C10.6091 10.7627 9.88351 10.6571 9.23004 10.3578C8.57657 10.0584 8.02259 9.57779 7.63373 8.97291C7.24488 8.36804 7.03747 7.66427 7.0361 6.94502ZM3.5713 18.195C4.16324 16.7189 5.18317 15.4538 6.49975 14.5628C7.81634 13.6719 9.3693 13.1957 10.9586 13.1957C12.548 13.1957 14.1009 13.6719 15.4175 14.5628C16.7341 15.4538 17.754 16.7189 18.3459 18.195H3.57382H3.5713Z" fill="#22262A"/>
</svg>
