<svg width="78" height="11" viewBox="0 0 78 11" fill="none" xmlns="http://www.w3.org/2000/svg">
<path d="M45.0342 4.43679L41.4687 6.91015L42.5155 10.9296L39.051 8.5019L35.3633 10.8009L36.7874 6.82617L33.462 4.22846L37.8065 4.19977L39.4389 0.295227L40.6993 4.25182L45.0342 4.43679Z" fill="#FFC600"/>
<path d="M28.6884 4.43679L25.1228 6.91015L26.1696 10.9296L22.705 8.5019L19.0172 10.8009L20.4413 6.82617L17.116 4.22846L21.4605 4.19977L23.0929 0.295227L24.3534 4.25182L28.6884 4.43679Z" fill="#FFC600"/>
<path d="M12.3433 4.43679L8.77777 6.91015L9.82458 10.9296L6.36005 8.5019L2.67235 10.8009L4.09642 6.82617L0.771118 4.22846L5.1156 4.19977L6.74794 0.295227L8.00835 4.25182L12.3433 4.43679Z" fill="#FFC600"/>
<path d="M61.3782 4.43679L57.8126 6.91015L58.8595 10.9296L55.3949 8.5019L51.7072 10.8009L53.1313 6.82617L49.8059 4.22846L54.1504 4.19977L55.7828 0.295227L57.0432 4.25182L61.3782 4.43679Z" fill="#FFC600"/>
<path d="M77.7242 4.43679L74.1587 6.91015L75.2055 10.9296L71.741 8.5019L68.0532 10.8009L69.4773 6.82617L66.152 4.22846L70.4964 4.19977L72.1288 0.295227L73.3893 4.25182L77.7242 4.43679Z" fill="#C1C8CE"/>
</svg>
