<svg width="78" height="12" viewBox="0 0 78 12" fill="none" xmlns="http://www.w3.org/2000/svg">
<path d="M44.4532 4.70382L40.8878 7.17719L41.9346 11.1966L38.47 8.76894L34.7823 11.068L36.2064 7.0932L32.8811 4.49549L37.2256 4.46681L38.8579 0.562256L40.1184 4.51886L44.4532 4.70382Z" fill="#FFC600"/>
<path d="M28.1073 4.70382L24.5418 7.17719L25.5886 11.1966L22.124 8.76894L18.4363 11.068L19.8604 7.0932L16.5351 4.49549L20.8796 4.46681L22.5119 0.562256L23.7723 4.51886L28.1073 4.70382Z" fill="#FFC600"/>
<path d="M11.7623 4.70382L8.19683 7.17719L9.24364 11.1966L5.7791 8.76894L2.0914 11.068L3.51546 7.0932L0.190155 4.49549L4.53465 4.46681L6.16699 0.562256L7.42741 4.51886L11.7623 4.70382Z" fill="#FFC600"/>
<path d="M60.7971 4.70382L57.2316 7.17719L58.2784 11.1966L54.8139 8.76894L51.1262 11.068L52.5503 7.0932L49.2249 4.49549L53.5694 4.46681L55.2018 0.562256L56.4622 4.51886L60.7971 4.70382Z" fill="#FFC600"/>
<path d="M77.1432 4.70382L73.5777 7.17719L74.6245 11.1966L71.1599 8.76894L67.4723 11.068L68.8963 7.0932L65.571 4.49549L69.9154 4.46681L71.5478 0.562256L72.8083 4.51886L77.1432 4.70382Z" fill="#C1C8CE"/>
</svg>
