<svg width="124" height="16" viewBox="0 0 124 16" fill="none" xmlns="http://www.w3.org/2000/svg">
<path d="M69.0819 6.52515L64.8304 10.0471L66.0812 15.7711L61.9503 12.3131L57.5532 15.5872L59.252 9.92712L55.2859 6.22717L60.4664 6.18713L62.4131 0.626221L63.9163 6.26221L69.0819 6.52515Z" fill="#FFC600"/>
<path d="M41.6308 6.52515L37.3794 10.0471L38.6301 15.7711L34.4992 12.3131L30.1022 15.5872L31.8009 9.92712L27.8348 6.22717L33.0153 6.18713L34.962 0.626221L36.4651 6.26221L41.6308 6.52515Z" fill="#FFC600"/>
<path d="M14.182 6.52515L9.93051 10.0471L11.1813 15.7711L7.05031 12.3131L2.65328 15.5872L4.35207 9.92712L0.385986 6.22717L5.56645 6.18713L7.51311 0.626221L9.0163 6.26221L14.182 6.52515Z" fill="#FFC600"/>
<path d="M96.5314 6.52515L92.2799 10.0471L93.5307 15.7711L89.3997 12.3131L85.0027 15.5872L86.7015 9.92712L82.7354 6.22717L87.9159 6.18713L89.8625 0.626221L91.3657 6.26221L96.5314 6.52515Z" fill="#FFC600"/>
<path d="M123.982 6.52515L119.731 10.0471L120.982 15.7711L116.851 12.3131L112.454 15.5872L114.153 9.92712L110.186 6.22717L115.367 6.18713L117.314 0.626221L118.817 6.26221L123.982 6.52515Z" fill="#C1C8CE"/>
</svg>
