<svg width="22" height="22" viewBox="0 0 22 22" fill="none" xmlns="http://www.w3.org/2000/svg">
<path fill-rule="evenodd" clip-rule="evenodd" d="M20.7067 18.9129L14.3987 12.5759C15.5304 10.9697 16.0175 8.99712 15.7635 7.04879C15.5095 5.10046 14.533 3.31863 13.0273 2.0563C11.5217 0.793961 9.59677 0.143232 7.63401 0.233053C5.67125 0.322875 3.81385 1.14664 2.42978 2.54122C1.04572 3.9358 0.23596 5.7994 0.160986 7.76278C0.0860119 9.72616 0.751283 11.6461 2.02497 13.1422C3.29866 14.6382 5.08784 15.6013 7.03803 15.8405C8.98822 16.0798 10.9571 15.5778 12.5547 14.4339L18.8627 20.7719C18.984 20.8959 19.1288 20.9945 19.2886 21.062C19.4485 21.1295 19.6201 21.1646 19.7936 21.1652C19.9671 21.1658 20.1389 21.1319 20.2992 21.0655C20.4595 20.999 20.6049 20.9014 20.7271 20.7783C20.8494 20.6551 20.9459 20.5089 21.0111 20.3482C21.0763 20.1874 21.1089 20.0153 21.107 19.8418C21.1051 19.6683 21.0687 19.497 21 19.3377C20.9313 19.1784 20.8316 19.0343 20.7067 18.9139V18.9129ZM8.01768 13.2709C6.97672 13.2766 5.95749 12.9732 5.08918 12.3991C4.22086 11.8249 3.54254 11.0059 3.1402 10.0459C2.73786 9.08579 2.62961 8.02785 2.82917 7.00619C3.02872 5.98452 3.52711 5.04514 4.26114 4.30703C4.99518 3.56892 5.93183 3.06533 6.95237 2.86013C7.97291 2.65492 9.03141 2.75736 9.99369 3.15438C10.956 3.5514 11.7787 4.22517 12.3576 5.09029C12.9366 5.95542 13.2457 6.97291 13.2457 8.01388C13.2457 9.40311 12.6958 10.7359 11.7162 11.721C10.7366 12.706 9.40689 13.2632 8.01768 13.2709Z" fill="#22262A"/>
</svg>
