<svg width="28" height="10" viewBox="0 0 28 10" fill="none" xmlns="http://www.w3.org/2000/svg">
<path d="M25.2572 9.44348L25.0052 8.14856H22.2712L21.8223 9.44348H19.5802L22.7872 1.37854C22.8618 1.17855 22.9985 1.00752 23.1771 0.890747C23.3558 0.773973 23.5672 0.717653 23.7803 0.729614H25.5093L27.2312 9.44446L25.2572 9.44348ZM24.0212 3.09924L22.8912 6.36047H24.6572L24.0212 3.09924ZM16.7343 3.2135C16.7343 4.1655 19.7343 4.36923 19.7343 6.55823C19.7343 8.66623 17.5192 9.44153 16.0522 9.44153C15.2184 9.45532 14.3911 9.29305 13.6243 8.96545L13.9442 7.07532C14.8242 7.79532 17.4933 8.00054 17.4933 6.85754C17.4933 5.71454 14.5183 5.68735 14.5183 3.51135C14.5183 1.19935 17.0523 0.723267 18.1183 0.723267C18.7786 0.740194 19.4317 0.864325 20.0522 1.09045L19.7452 2.89954C18.8272 2.38754 16.7323 2.26541 16.7323 3.21741L16.7343 3.2135ZM10.1503 9.44348L11.4943 0.728149H13.6453L12.3013 9.44348H10.1503ZM4.99329 9.44348L3.1272 1.88147C3.45685 2.08736 3.77136 2.31665 4.06824 2.5675C4.96525 3.33509 5.64777 4.32199 6.04919 5.43225L6.29224 6.72327L8.34326 0.729614H10.6582L7.23621 9.44446L4.99329 9.44348ZM1.19922 0.967407L1.09924 0.937622L1.19922 0.967407ZM0.979248 0.902466L0.931274 0.889282L0.979248 0.902466ZM1.5083 1.07239L1.38025 1.02747L1.5083 1.07239ZM2.99927 1.79749C2.9326 1.75615 2.86586 1.71634 2.79919 1.67834C2.86319 1.72234 2.92919 1.76037 2.99719 1.80237L2.99927 1.79749ZM2.48523 1.50745C2.42723 1.47745 2.3673 1.4456 2.3103 1.4176C2.3653 1.4506 2.42428 1.48233 2.48328 1.51233L2.48523 1.50745ZM1.9502 1.25061L1.83228 1.19934L1.9502 1.25061Z" fill="#494CA3"/>
</svg>
