<svg width="16" height="13" viewBox="0 0 16 13" fill="none" xmlns="http://www.w3.org/2000/svg">
<path d="M15.5642 1.6894C15.0139 1.92953 14.4319 2.08916 13.8362 2.1634C14.4643 1.79093 14.9339 1.20101 15.1562 0.505401C14.5688 0.853769 13.9262 1.0993 13.2562 1.2314C12.845 0.791361 12.3109 0.485258 11.7234 0.352924C11.1358 0.22059 10.5221 0.26815 9.96194 0.489417C9.40182 0.710685 8.92125 1.09541 8.58278 1.59355C8.2443 2.09168 8.06359 2.68015 8.06415 3.2824C8.06196 3.5123 8.08544 3.74171 8.13415 3.9664C6.94078 3.90781 5.7732 3.59802 4.70775 3.05728C3.6423 2.51655 2.70296 1.75704 1.95115 0.828403C1.56505 1.4883 1.44546 2.27071 1.61682 3.01581C1.78818 3.76091 2.23756 4.41248 2.87315 4.8374C2.39844 4.8248 1.93371 4.69824 1.51815 4.4684V4.5014C1.51879 5.19367 1.75773 5.86462 2.19479 6.40148C2.63185 6.93833 3.2404 7.30837 3.91815 7.4494C3.66142 7.5175 3.39676 7.55112 3.13115 7.5494C2.94054 7.55287 2.7501 7.53577 2.56315 7.4984C2.75675 8.09336 3.1299 8.61374 3.63129 8.98799C4.13269 9.36225 4.7377 9.572 5.36315 9.5884C4.30255 10.4171 2.99511 10.867 1.64915 10.8664C1.40919 10.8681 1.16936 10.8544 0.931152 10.8254C2.30232 11.7089 3.90001 12.1764 5.53115 12.1714C6.6544 12.1792 7.76801 11.9638 8.8073 11.5377C9.84658 11.1115 10.7908 10.483 11.5852 9.68887C12.3796 8.89469 13.0082 7.95058 13.4346 6.9114C13.861 5.87221 14.0767 4.75865 14.0692 3.6354C14.0692 3.5024 14.0692 3.3744 14.0582 3.2474C14.6508 2.82404 15.1611 2.29606 15.5642 1.6894Z" fill="#03A9F4"/>
</svg>
