<svg width="18" height="13" viewBox="0 0 18 13" fill="none" xmlns="http://www.w3.org/2000/svg">
<path d="M17.862 1.53887C17.2121 1.7942 16.5247 1.96395 15.8211 2.04289C16.5629 1.64683 17.1177 1.01955 17.3801 0.279893C16.6864 0.650321 15.9274 0.911398 15.1361 1.05187C14.6505 0.583961 14.0197 0.258474 13.3257 0.11776C12.6318 -0.0229546 11.9069 0.0276176 11.2454 0.262897C10.5838 0.498176 10.0163 0.907269 9.6165 1.43695C9.21674 1.96662 9.0033 2.59237 9.00397 3.23275C9.00137 3.4772 9.02911 3.72115 9.08664 3.96006C7.67718 3.89776 6.29819 3.56836 5.03981 2.99338C3.78144 2.4184 2.67202 1.61079 1.78408 0.623349C1.32806 1.32503 1.18682 2.15699 1.38921 2.94928C1.5916 3.74156 2.12234 4.43439 2.87302 4.88622C2.31235 4.87282 1.76347 4.73825 1.27267 4.49385V4.52895C1.27343 5.26506 1.55563 5.97849 2.07183 6.54934C2.58803 7.1202 3.30677 7.51367 4.10724 7.66363C3.80402 7.73604 3.49144 7.77179 3.17774 7.76996C2.95261 7.77365 2.72769 7.75547 2.50689 7.71573C2.73555 8.34837 3.17626 8.9017 3.76844 9.29966C4.36062 9.69761 5.07519 9.92064 5.81389 9.93808C4.56124 10.8193 3.01707 11.2976 1.42739 11.297C1.14398 11.2988 0.860729 11.2842 0.579384 11.2534C2.19883 12.1929 4.08581 12.69 6.01231 12.6847C7.33894 12.693 8.6542 12.4639 9.88167 12.0108C11.1091 11.5576 12.2244 10.8894 13.1626 10.0449C14.1008 9.20044 14.8433 8.19655 15.3469 7.09155C15.8505 5.98656 16.1052 4.80248 16.0963 3.6081C16.0963 3.46668 16.0963 3.33058 16.0833 3.19553C16.7832 2.74537 17.386 2.18394 17.862 1.53887Z" fill="white"/>
</svg>
