<svg width="39" height="26" viewBox="0 0 39 26" fill="none" xmlns="http://www.w3.org/2000/svg">
<path d="M1.84922 0.415161H36.8313C37.0545 0.419582 37.2747 0.468197 37.4792 0.557739C37.6838 0.647282 37.8687 0.776108 38.0234 0.937134C38.1781 1.09816 38.2997 1.28823 38.381 1.49622C38.4623 1.7042 38.5017 1.92628 38.4972 2.14954V23.8253C38.506 24.276 38.3355 24.7118 38.0231 25.0367C37.7106 25.3617 37.282 25.5493 36.8313 25.5582H1.84922C1.3985 25.5493 0.969755 25.3617 0.657329 25.0367C0.344903 24.7118 0.174368 24.276 0.183208 23.8253V2.14954C0.178698 1.92628 0.218249 1.7042 0.299541 1.49622C0.380833 1.28823 0.502252 1.09816 0.656963 0.937134C0.811674 0.776108 0.996587 0.647282 1.20115 0.557739C1.40572 0.468197 1.62596 0.419582 1.84922 0.415161Z" fill="#353A40"/>
<path d="M22.8722 16.9795C22.6078 16.8451 22.3904 16.6334 22.2483 16.3731C22.0779 16.0544 21.995 15.6966 22.0083 15.3355C21.9936 15.0893 22.0279 14.8426 22.1093 14.6099C22.1906 14.3771 22.3175 14.1629 22.4823 13.9795C22.6575 13.8126 22.8652 13.6834 23.0924 13.6001C23.3197 13.5168 23.5616 13.4809 23.8032 13.4951C24.0467 13.4795 24.2908 13.5137 24.5205 13.5957C24.7502 13.6777 24.9608 13.8059 25.1393 13.9722C25.3026 14.1521 25.4281 14.363 25.5087 14.5923C25.5892 14.8216 25.6231 15.0646 25.6083 15.3071C25.6231 15.6588 25.5545 16.009 25.4082 16.3291C25.276 16.5897 25.0702 16.8057 24.8163 16.9502C24.5189 17.1075 24.1854 17.1842 23.8492 17.1724C23.513 17.1845 23.1785 17.1185 22.8722 16.9795ZM23.2782 14.5625C23.1493 14.8008 23.0818 15.0674 23.0818 15.3384C23.0818 15.6094 23.1493 15.8759 23.2782 16.1143C23.3462 16.1881 23.4288 16.2468 23.5208 16.2871C23.6127 16.3274 23.7119 16.3486 23.8123 16.3486C23.9126 16.3486 24.0118 16.3274 24.1038 16.2871C24.1957 16.2468 24.2782 16.1881 24.3462 16.1143C24.4978 15.867 24.5645 15.5768 24.5363 15.2881C24.5578 15.0275 24.487 14.7678 24.3363 14.5542C24.2702 14.4777 24.1876 14.4175 24.0947 14.3774C24.0019 14.3374 23.9013 14.3188 23.8003 14.3233C23.7008 14.3205 23.602 14.3404 23.5115 14.3818C23.421 14.4233 23.3411 14.4854 23.2782 14.5625ZM13.3662 17.1362C13.1919 17.1191 13.0224 17.0696 12.8662 16.9902C12.7246 16.913 12.5997 16.8085 12.4983 16.6831C12.3945 16.5641 12.3165 16.4251 12.2693 16.2744C12.2079 16.0801 12.1743 15.878 12.1693 15.6743V13.5562H13.2402V15.7241C13.2354 15.8066 13.247 15.8894 13.2743 15.9673C13.3016 16.0452 13.3441 16.1168 13.3993 16.1782C13.5206 16.2825 13.6752 16.3399 13.8352 16.3399C13.9952 16.3399 14.1499 16.2825 14.2712 16.1782C14.3264 16.1162 14.3688 16.0438 14.3959 15.9653C14.423 15.8869 14.4343 15.804 14.4292 15.7212V13.5532H15.5002V15.6714C15.5008 15.8756 15.467 16.0785 15.4003 16.2715C15.3386 16.4551 15.236 16.6221 15.1002 16.7603C14.9805 16.8909 14.8334 16.9931 14.6693 17.0601C14.4281 17.1441 14.1736 17.1842 13.9182 17.1782C13.7339 17.1746 13.55 17.1602 13.3673 17.1353L13.3662 17.1362ZM28.5052 17.1123L27.2052 15.1602V17.1123H26.1952V13.5571H27.1952L28.5043 15.5234V13.5571H29.5162V17.1123H28.5052ZM18.5272 17.1123L17.2273 15.1602V17.1123H16.2173V13.5571H17.2173L18.5253 15.5234V13.5571H19.5372V17.1123H18.5272ZM20.2972 17.103V13.5542H21.3772V17.103H20.2972ZM12.0923 12.1221C11.8608 11.8822 11.7233 11.5673 11.7052 11.2344L12.7273 11.1694C12.738 11.3081 12.784 11.4414 12.8612 11.5571C12.9169 11.6288 12.9891 11.6859 13.0717 11.7236C13.1542 11.7614 13.2446 11.7791 13.3352 11.7744C13.4632 11.7829 13.5899 11.743 13.6903 11.6631C13.7279 11.6334 13.7583 11.5957 13.7794 11.5527C13.8005 11.5097 13.8118 11.4625 13.8124 11.4146C13.813 11.3667 13.8028 11.3194 13.7827 11.2759C13.7626 11.2324 13.7331 11.1937 13.6963 11.1631C13.5301 11.0554 13.3423 10.985 13.1462 10.957C12.7808 10.8959 12.4355 10.748 12.1393 10.5254C12.0416 10.4404 11.964 10.3345 11.9121 10.2158C11.8602 10.0972 11.8354 9.96878 11.8392 9.83936C11.8397 9.65565 11.8936 9.47595 11.9943 9.32227C12.1082 9.15085 12.2709 9.01765 12.4613 8.93946C12.7338 8.83511 13.0248 8.78764 13.3163 8.8003C13.6732 8.77649 14.0286 8.86524 14.3323 9.05421C14.4548 9.15115 14.5552 9.27331 14.627 9.41212C14.6987 9.55092 14.7401 9.70336 14.7483 9.85938L13.7362 9.92042C13.723 9.78754 13.6628 9.66364 13.5663 9.5713C13.4642 9.49336 13.3374 9.4548 13.2092 9.46241C13.1086 9.45508 13.0087 9.48385 12.9272 9.54347C12.8973 9.56742 12.8731 9.59768 12.8567 9.63233C12.8402 9.66698 12.8319 9.70481 12.8323 9.74317C12.8331 9.77312 12.8406 9.80245 12.8542 9.82911C12.8679 9.85576 12.8874 9.87936 12.9113 9.89747C13.0205 9.96701 13.1437 10.0113 13.2722 10.0274C13.6198 10.0917 13.9585 10.1971 14.2812 10.3413C14.4632 10.4285 14.6168 10.5655 14.7242 10.7363C14.8171 10.8955 14.8649 11.0769 14.8623 11.2612C14.8635 11.4851 14.7992 11.7043 14.6772 11.8921C14.5518 12.0859 14.372 12.2382 14.1603 12.3301C13.895 12.4372 13.6102 12.4883 13.3242 12.4795C12.8826 12.5257 12.4404 12.3968 12.0923 12.1211V12.1221ZM28.5062 12.4121L27.2063 10.4595V12.4121H26.1963V8.85743H27.1963L28.5052 10.8242V8.85743H29.5172V12.4121H28.5062ZM24.6312 12.4121L24.0573 11.3252C24.0111 11.2221 23.9448 11.1294 23.8623 11.0523C23.7854 10.9972 23.6929 10.9682 23.5983 10.9692H23.5033V12.4121H22.4242V8.85743H24.2133C24.4699 8.84736 24.7265 8.87661 24.9742 8.94434C25.1482 9.00118 25.298 9.11472 25.3993 9.2671C25.5105 9.43818 25.5667 9.63934 25.5603 9.84327C25.5648 10.0214 25.5223 10.1979 25.4373 10.3545C25.3548 10.4969 25.238 10.6159 25.0973 10.7012C24.9798 10.7679 24.8525 10.8159 24.7202 10.8433C24.8194 10.8726 24.9138 10.9163 25.0002 10.9732C25.0645 11.0288 25.1219 11.0919 25.1713 11.1611C25.2283 11.2296 25.2789 11.3035 25.3223 11.3814L25.8423 12.4121H24.6312ZM23.5043 10.2964H23.9573C24.0533 10.2895 24.1483 10.2731 24.2412 10.2481C24.3109 10.2337 24.3729 10.1944 24.4153 10.1372C24.4604 10.0777 24.4843 10.0048 24.4833 9.93018C24.4864 9.88083 24.4784 9.83151 24.4598 9.78565C24.4413 9.73979 24.4127 9.69842 24.3762 9.66505C24.2565 9.59151 24.1159 9.5597 23.9762 9.57423H23.5043V10.2964ZM18.9043 12.4121V8.85743H21.7822V9.61622H19.9823V10.1812H21.6543V10.9072H19.9823V11.6074H21.8373V12.4121H18.9043ZM16.2522 12.4121V9.73536H15.1572V8.85743H18.4222V9.73536H17.3223V12.4121H16.2522ZM8.38721 12.4121V8.85743H11.2653V9.61622H9.46521V10.1812H11.1362V10.9072H9.45728V11.6074H11.3103V12.4121H8.38721ZM6.22021 12.4121L5.61121 10.1733L5.00427 12.4121H3.95129L3.17822 8.85743H4.19824L4.56531 10.8472L5.10327 8.85743H6.11926L6.6582 10.8452L7.02527 8.85743H8.04028L7.27429 12.4121H6.22021Z" fill="#ECD345"/>
<path d="M34.3073 17.1744V8.79456H35.5072V17.1744H34.3073ZM31.3173 17.1744V8.79456H32.5172V17.1744H31.3173Z" fill="#ECD345"/>
</svg>
